solid Visualization Toolkit generated SLA File
 facet normal 0 0 -1
  outer loop
   vertex -0.039999999105930328 0.05000000074505806 0.10000000149011612
   vertex -0.04059804230928421 0.04059804230928421 0.10000000149011612
   vertex -0.05000000074505806 0.05000000074505806 0.10000000149011612
  endloop
 endfacet
 facet normal 0 0 -1
  outer loop
   vertex 0.05000000074505806 0.05000000074505806 0.10000000149011612
   vertex 0.040430657565593719 0.040430657565593719 0.10000000149011612
   vertex 0.039999999105930328 0.05000000074505806 0.10000000149011612
  endloop
 endfacet
 facet normal -0 0 -1
  outer loop
   vertex -0.05000000074505806 -0.039999999105930328 0.10000000149011612
   vertex -0.04059804230928421 -0.04059804230928421 0.10000000149011612
   vertex -0.05000000074505806 -0.05000000074505806 0.10000000149011612
  endloop
 endfacet
 facet normal -0 0 -1
  outer loop
   vertex -0.05000000074505806 0.05000000074505806 0.10000000149011612
   vertex -0.04059804230928421 0.04059804230928421 0.10000000149011612
   vertex -0.05000000074505806 0.039999999105930328 0.10000000149011612
  endloop
 endfacet
 facet normal 0 -0 -1
  outer loop
   vertex -0.05000000074505806 -0.05000000074505806 0.10000000149011612
   vertex -0.04059804230928421 -0.04059804230928421 0.10000000149011612
   vertex -0.039999999105930328 -0.05000000074505806 0.10000000149011612
  endloop
 endfacet
 facet normal 0 0 -1
  outer loop
   vertex 0.05000000074505806 -0.05000000074505806 0.10000000149011612
   vertex 0.04059804230928421 -0.04059804230928421 0.10000000149011612
   vertex 0.05000000074505806 -0.039999999105930328 0.10000000149011612
  endloop
 endfacet
 facet normal 0 0 -1
  outer loop
   vertex 0.05000000074505806 0.039999999105930328 0.10000000149011612
   vertex 0.040430657565593719 0.040430657565593719 0.10000000149011612
   vertex 0.05000000074505806 0.05000000074505806 0.10000000149011612
  endloop
 endfacet
 facet normal 0 -0 -1
  outer loop
   vertex 0.039999999105930328 -0.05000000074505806 0.10000000149011612
   vertex 0.04059804230928421 -0.04059804230928421 0.10000000149011612
   vertex 0.05000000074505806 -0.05000000074505806 0.10000000149011612
  endloop
 endfacet
 facet normal 0 0 -1
  outer loop
   vertex 0.027585791423916817 -0.0006933603435754776 0.10000000149011612
   vertex 0.025416307151317596 -0.012475916184484959 0.10000000149011612
   vertex 0.017653604969382286 -0.0076035363599658012 0.10000000149011612
  endloop
 endfacet
 facet normal 0 -0 -1
  outer loop
   vertex -0.03488660603761673 0.014071010984480381 0.10000000149011612
   vertex -0.030126528814435005 0.022779382765293121 0.10000000149011612
   vertex -0.02437492273747921 0.010439650155603886 0.10000000149011612
  endloop
 endfacet
 facet normal -0 0 -1
  outer loop
   vertex 0.010887724347412586 -0.024149589240550995 0.10000000149011612
   vertex 0.022779382765293121 -0.030126528814435005 0.10000000149011612
   vertex 0.013834146782755852 -0.034794528037309647 0.10000000149011612
  endloop
 endfacet
 facet normal 0 0 -1
  outer loop
   vertex -0.02437492273747921 0.010439650155603886 0.10000000149011612
   vertex -0.030126528814435005 0.022779382765293121 0.10000000149011612
   vertex -0.020714284852147102 0.020714284852147102 0.10000000149011612
  endloop
 endfacet
 facet normal 0 0 -1
  outer loop
   vertex 0.020714284852147102 -0.020714284852147102 0.10000000149011612
   vertex 0.022779382765293121 -0.030126528814435005 0.10000000149011612
   vertex 0.010887724347412586 -0.024149589240550995 0.10000000149011612
  endloop
 endfacet
 facet normal 0 0 -1
  outer loop
   vertex 0.00091432424960657954 -0.027908474206924438 0.10000000149011612
   vertex -0.0066086282022297382 -0.031568355858325958 0.10000000149011612
   vertex -0.0086857713758945465 -0.019641250371932983 0.10000000149011612
  endloop
 endfacet
 facet normal 0 -0 -1
  outer loop
   vertex 0.007487182505428791 -0.012875107116997242 0.10000000149011612
   vertex 0.0097829625010490417 -0.0024571623653173447 0.10000000149011612
   vertex 0.017653604969382286 -0.0076035363599658012 0.10000000149011612
  endloop
 endfacet
 facet normal 0 -0 -1
  outer loop
   vertex -0.0087088476866483688 0.019706578925251961 0.10000000149011612
   vertex -0.0065545989200472832 0.031948607414960861 0.10000000149011612
   vertex 3.4694469519536142e-18 0.028031358495354652 0.10000000149011612
  endloop
 endfacet
 facet normal 0 0 -1
  outer loop
   vertex -0.0086857713758945465 -0.019641250371932983 0.10000000149011612
   vertex -0.0066086282022297382 -0.031568355858325958 0.10000000149011612
   vertex -0.014155397191643715 -0.026282984763383865 0.10000000149011612
  endloop
 endfacet
 facet normal 0 0 -1
  outer loop
   vertex 0.0099999997764825821 0.05000000074505806 0.10000000149011612
   vertex 0.0040120137855410576 0.038821108639240265 0.10000000149011612
   vertex 0 0.05000000074505806 0.10000000149011612
  endloop
 endfacet
 facet normal -0 0 -1
  outer loop
   vertex -0.05000000074505806 0 0.10000000149011612
   vertex -0.038852356374263763 -0.0042540952563285828 0.10000000149011612
   vertex -0.05000000074505806 -0.0099999997764825821 0.10000000149011612
  endloop
 endfacet
 facet normal 0 0 -1
  outer loop
   vertex 0.05000000074505806 0 0.10000000149011612
   vertex 0.039015680551528931 0.0033539629075676203 0.10000000149011612
   vertex 0.05000000074505806 0.0099999997764825821 0.10000000149011612
  endloop
 endfacet
 facet normal 0 -0 -1
  outer loop
   vertex 0 -0.05000000074505806 0.10000000149011612
   vertex 0.0033539629075676203 -0.039015680551528931 0.10000000149011612
   vertex 0.0099999997764825821 -0.05000000074505806 0.10000000149011612
  endloop
 endfacet
 facet normal 0 0 -1
  outer loop
   vertex -0.014200093224644661 0.026303935796022415 0.10000000149011612
   vertex -0.0065545989200472832 0.031948607414960861 0.10000000149011612
   vertex -0.0087088476866483688 0.019706578925251961 0.10000000149011612
  endloop
 endfacet
 facet normal -0 0 -1
  outer loop
   vertex 0.0099999997764825821 0.05000000074505806 0.10000000149011612
   vertex 0.014398076571524143 0.042788241058588028 0.10000000149011612
   vertex 0.0040120137855410576 0.038821108639240265 0.10000000149011612
  endloop
 endfacet
 facet normal 0 -0 -1
  outer loop
   vertex 0.039015680551528931 0.0033539629075676203 0.10000000149011612
   vertex 0.04279264435172081 0.014290967024862766 0.10000000149011612
   vertex 0.05000000074505806 0.0099999997764825821 0.10000000149011612
  endloop
 endfacet
 facet normal 0 0 -1
  outer loop
   vertex -0.038852356374263763 -0.0042540952563285828 0.10000000149011612
   vertex -0.042759981006383896 -0.014470993541181087 0.10000000149011612
   vertex -0.05000000074505806 -0.0099999997764825821 0.10000000149011612
  endloop
 endfacet
 facet normal -0 0 -1
  outer loop
   vertex 0.0033539629075676203 -0.039015680551528931 0.10000000149011612
   vertex 0.014214259572327137 -0.042806860059499741 0.10000000149011612
   vertex 0.0099999997764825821 -0.05000000074505806 0.10000000149011612
  endloop
 endfacet
 facet normal -0 0 -1
  outer loop
   vertex 0.027585791423916817 -0.0006933603435754776 0.10000000149011612
   vertex 0.033715903759002686 -0.0061788400635123253 0.10000000149011612
   vertex 0.025416307151317596 -0.012475916184484959 0.10000000149011612
  endloop
 endfacet
 facet normal 0 0 -1
  outer loop
   vertex 0.017653604969382286 -0.0076035363599658012 0.10000000149011612
   vertex 0.015290817245841026 -0.015471635386347771 0.10000000149011612
   vertex 0.007487182505428791 -0.012875107116997242 0.10000000149011612
  endloop
 endfacet
 facet normal 0 0 -1
  outer loop
   vertex -0.01430831290781498 0.0063963322900235653 0.10000000149011612
   vertex -0.018801165744662285 -0.0013005883665755391 0.10000000149011612
   vertex -0.02437492273747921 0.010439650155603886 0.10000000149011612
  endloop
 endfacet
 facet normal 0 0 -1
  outer loop
   vertex -0.02437492273747921 0.010439650155603886 0.10000000149011612
   vertex -0.018801165744662285 -0.0013005883665755391 0.10000000149011612
   vertex -0.028086381033062935 -0.00022921561321709305 0.10000000149011612
  endloop
 endfacet
 facet normal 0 0 -1
  outer loop
   vertex 0.0019099880009889603 0.014015679247677326 0.10000000149011612
   vertex -0.0055560427717864513 0.0085766231641173363 0.10000000149011612
   vertex -0.0087088476866483688 0.019706578925251961 0.10000000149011612
  endloop
 endfacet
 facet normal 0 0 -1
  outer loop
   vertex 0.013230196200311184 0.014164701104164124 0.10000000149011612
   vertex 0.0055591645650565624 0.006380405742675066 0.10000000149011612
   vertex 0.0019099880009889603 0.014015679247677326 0.10000000149011612
  endloop
 endfacet
 facet normal 0 0 -1
  outer loop
   vertex -0.0055560427717864513 0.0085766231641173363 0.10000000149011612
   vertex -0.015169416554272175 0.014755787327885628 0.10000000149011612
   vertex -0.0087088476866483688 0.019706578925251961 0.10000000149011612
  endloop
 endfacet
 facet normal -0 0 -1
  outer loop
   vertex -0.012523344717919827 -0.0081909410655498505 0.10000000149011612
   vertex -0.0025216031353920698 -0.009813760407269001 0.10000000149011612
   vertex -0.0086857713758945465 -0.019641250371932983 0.10000000149011612
  endloop
 endfacet
 facet normal 0 -0 -1
  outer loop
   vertex 0.017653604969382286 -0.0076035363599658012 0.10000000149011612
   vertex 0.018663814291357994 0.00079448142787441611 0.10000000149011612
   vertex 0.027585791423916817 -0.0006933603435754776 0.10000000149011612
  endloop
 endfacet
 facet normal 0 0 -1
  outer loop
   vertex 0.03488660603761673 0.014071010984480381 0.10000000149011612
   vertex 0.04279264435172081 0.014290967024862766 0.10000000149011612
   vertex 0.039015680551528931 0.0033539629075676203 0.10000000149011612
  endloop
 endfacet
 facet normal 0 0 -1
  outer loop
   vertex 0.013834146782755852 -0.034794528037309647 0.10000000149011612
   vertex 0.014214259572327137 -0.042806860059499741 0.10000000149011612
   vertex 0.0033539629075676203 -0.039015680551528931 0.10000000149011612
  endloop
 endfacet
 facet normal 0 0 -1
  outer loop
   vertex 0.0040120137855410576 0.038821108639240265 0.10000000149011612
   vertex 0.014398076571524143 0.042788241058588028 0.10000000149011612
   vertex 0.014071010984480381 0.03488660603761673 0.10000000149011612
  endloop
 endfacet
 facet normal 0 0 -1
  outer loop
   vertex -0.03488660603761673 -0.014071010984480381 0.10000000149011612
   vertex -0.042759981006383896 -0.014470993541181087 0.10000000149011612
   vertex -0.038852356374263763 -0.0042540952563285828 0.10000000149011612
  endloop
 endfacet
 facet normal 0 0 -1
  outer loop
   vertex 0.029999999329447746 0.05000000074505806 0.10000000149011612
   vertex 0.023907359689474106 0.040233485400676727 0.10000000149011612
   vertex 0.019999999552965164 0.05000000074505806 0.10000000149011612
  endloop
 endfacet
 facet normal 0 0 -1
  outer loop
   vertex 0.05000000074505806 -0.029999999329447746 0.10000000149011612
   vertex 0.040060941129922867 -0.024029860273003578 0.10000000149011612
   vertex 0.05000000074505806 -0.019999999552965164 0.10000000149011612
  endloop
 endfacet
 facet normal 0 -0 -1
  outer loop
   vertex 0.019999999552965164 -0.05000000074505806 0.10000000149011612
   vertex 0.023883190006017685 -0.040224090218544006 0.10000000149011612
   vertex 0.029999999329447746 -0.05000000074505806 0.10000000149011612
  endloop
 endfacet
 facet normal 0 0 -1
  outer loop
   vertex 0.05000000074505806 0.019999999552965164 0.10000000149011612
   vertex 0.040060941129922867 0.024029860273003578 0.10000000149011612
   vertex 0.05000000074505806 0.029999999329447746 0.10000000149011612
  endloop
 endfacet
 facet normal 0 -0 -1
  outer loop
   vertex -0.029999999329447746 -0.05000000074505806 0.10000000149011612
   vertex -0.023907359689474106 -0.040233485400676727 0.10000000149011612
   vertex -0.019999999552965164 -0.05000000074505806 0.10000000149011612
  endloop
 endfacet
 facet normal 0 0 -1
  outer loop
   vertex -0.019999999552965164 0.05000000074505806 0.10000000149011612
   vertex -0.024029860273003578 0.040060941129922867 0.10000000149011612
   vertex -0.029999999329447746 0.05000000074505806 0.10000000149011612
  endloop
 endfacet
 facet normal -0 0 -1
  outer loop
   vertex -0.05000000074505806 0.029999999329447746 0.10000000149011612
   vertex -0.040233485400676727 0.023907359689474106 0.10000000149011612
   vertex -0.05000000074505806 0.019999999552965164 0.10000000149011612
  endloop
 endfacet
 facet normal -0 0 -1
  outer loop
   vertex -0.05000000074505806 -0.019999999552965164 0.10000000149011612
   vertex -0.040060941129922867 -0.024029860273003578 0.10000000149011612
   vertex -0.05000000074505806 -0.029999999329447746 0.10000000149011612
  endloop
 endfacet
 facet normal 0 0 -1
  outer loop
   vertex 0.007487182505428791 -0.012875107116997242 0.10000000149011612
   vertex 0.0038305805064737797 -0.0065178484655916691 0.10000000149011612
   vertex 0.0097829625010490417 -0.0024571623653173447 0.10000000149011612
  endloop
 endfacet
 facet normal -0 0 -1
  outer loop
   vertex 0.0084137991070747375 0.022264827042818069 0.10000000149011612
   vertex 0.013230196200311184 0.014164701104164124 0.10000000149011612
   vertex 0.0019099880009889603 0.014015679247677326 0.10000000149011612
  endloop
 endfacet
 facet normal -0 0 -1
  outer loop
   vertex 3.4694469519536142e-18 0.028031358495354652 0.10000000149011612
   vertex -0.0013360215816646814 0.020711310207843781 0.10000000149011612
   vertex -0.0087088476866483688 0.019706578925251961 0.10000000149011612
  endloop
 endfacet
 facet normal 0 -0 -1
  outer loop
   vertex -0.0087088476866483688 0.019706578925251961 0.10000000149011612
   vertex -0.0013360215816646814 0.020711310207843781 0.10000000149011612
   vertex 0.0019099880009889603 0.014015679247677326 0.10000000149011612
  endloop
 endfacet
 facet normal 0 -0 -1
  outer loop
   vertex -0.05000000074505806 0 0.10000000149011612
   vertex -0.041647911071777344 0.0068578533828258514 0.10000000149011612
   vertex -0.038852356374263763 -0.0042540952563285828 0.10000000149011612
  endloop
 endfacet
 facet normal 0 0 -1
  outer loop
   vertex 0.0040120137855410576 0.038821108639240265 0.10000000149011612
   vertex -0.0068982006050646305 0.041642703115940094 0.10000000149011612
   vertex 0 0.05000000074505806 0.10000000149011612
  endloop
 endfacet
 facet normal 0 0 -1
  outer loop
   vertex 0 -0.05000000074505806 0.10000000149011612
   vertex -0.0070078754797577858 -0.041675131767988205 0.10000000149011612
   vertex 0.0033539629075676203 -0.039015680551528931 0.10000000149011612
  endloop
 endfacet
 facet normal 0 0 -1
  outer loop
   vertex 0.05000000074505806 0 0.10000000149011612
   vertex 0.041675131767988205 -0.0070078754797577858 0.10000000149011612
   vertex 0.039015680551528931 0.0033539629075676203 0.10000000149011612
  endloop
 endfacet
 facet normal 0 0 -1
  outer loop
   vertex 0.014205099083483219 0.0065029733814299107 0.10000000149011612
   vertex 0.0055591645650565624 0.006380405742675066 0.10000000149011612
   vertex 0.013230196200311184 0.014164701104164124 0.10000000149011612
  endloop
 endfacet
 facet normal 0 0 -1
  outer loop
   vertex -0.01430831290781498 0.0063963322900235653 0.10000000149011612
   vertex -0.015169416554272175 0.014755787327885628 0.10000000149011612
   vertex -0.0055560427717864513 0.0085766231641173363 0.10000000149011612
  endloop
 endfacet
 facet normal 0 0 -1
  outer loop
   vertex -0.0086857713758945465 -0.019641250371932983 0.10000000149011612
   vertex -0.015535449609160423 -0.016198841854929924 0.10000000149011612
   vertex -0.012523344717919827 -0.0081909410655498505 0.10000000149011612
  endloop
 endfacet
 facet normal 0 0 -1
  outer loop
   vertex 0.010887724347412586 -0.024149589240550995 0.10000000149011612
   vertex 0.0011389947030693293 -0.019025951623916626 0.10000000149011612
   vertex 0.007487182505428791 -0.012875107116997242 0.10000000149011612
  endloop
 endfacet
 facet normal 0 -0 -1
  outer loop
   vertex 0.00091432424960657954 -0.027908474206924438 0.10000000149011612
   vertex 0.0011389947030693293 -0.019025951623916626 0.10000000149011612
   vertex 0.010887724347412586 -0.024149589240550995 0.10000000149011612
  endloop
 endfacet
 facet normal 0 0 -1
  outer loop
   vertex 0.040060941129922867 -0.024029860273003578 0.10000000149011612
   vertex 0.029530616477131844 -0.022500161081552505 0.10000000149011612
   vertex 0.03488660603761673 -0.014071010984480381 0.10000000149011612
  endloop
 endfacet
 facet normal 0 0 -1
  outer loop
   vertex 0.03488660603761673 0.014071010984480381 0.10000000149011612
   vertex 0.029961656779050827 0.023702364414930344 0.10000000149011612
   vertex 0.040060941129922867 0.024029860273003578 0.10000000149011612
  endloop
 endfacet
 facet normal 0 0 -1
  outer loop
   vertex -0.014071010984480381 0.03488660603761673 0.10000000149011612
   vertex -0.022681919857859612 0.029615815728902817 0.10000000149011612
   vertex -0.024029860273003578 0.040060941129922867 0.10000000149011612
  endloop
 endfacet
 facet normal -0 0 -1
  outer loop
   vertex -0.03488660603761673 -0.014071010984480381 0.10000000149011612
   vertex -0.029961656779050827 -0.023702364414930344 0.10000000149011612
   vertex -0.040060941129922867 -0.024029860273003578 0.10000000149011612
  endloop
 endfacet
 facet normal 0 0 -1
  outer loop
   vertex 0.0033539629075676203 -0.039015680551528931 0.10000000149011612
   vertex -0.0066086282022297382 -0.031568355858325958 0.10000000149011612
   vertex 0.00091432424960657954 -0.027908474206924438 0.10000000149011612
  endloop
 endfacet
 facet normal 0 -0 -1
  outer loop
   vertex -0.038852356374263763 -0.0042540952563285828 0.10000000149011612
   vertex -0.033569633960723877 0.0053770407103002071 0.10000000149011612
   vertex -0.028086381033062935 -0.00022921561321709305 0.10000000149011612
  endloop
 endfacet
 facet normal 0 0 -1
  outer loop
   vertex 3.4694469519536142e-18 0.028031358495354652 0.10000000149011612
   vertex -0.0065545989200472832 0.031948607414960861 0.10000000149011612
   vertex 0.0040120137855410576 0.038821108639240265 0.10000000149011612
  endloop
 endfacet
 facet normal 0 0 -1
  outer loop
   vertex 0.039015680551528931 0.0033539629075676203 0.10000000149011612
   vertex 0.033715903759002686 -0.0061788400635123253 0.10000000149011612
   vertex 0.027585791423916817 -0.0006933603435754776 0.10000000149011612
  endloop
 endfacet
 facet normal 0 0 -1
  outer loop
   vertex 0.029530616477131844 -0.022500161081552505 0.10000000149011612
   vertex 0.025416307151317596 -0.012475916184484959 0.10000000149011612
   vertex 0.03488660603761673 -0.014071010984480381 0.10000000149011612
  endloop
 endfacet
 facet normal 0 0 -1
  outer loop
   vertex 0.022349800914525986 0.0093439500778913498 0.10000000149011612
   vertex 0.018663814291357994 0.00079448142787441611 0.10000000149011612
   vertex 0.014205099083483219 0.0065029733814299107 0.10000000149011612
  endloop
 endfacet
 facet normal 0 0 -1
  outer loop
   vertex 0.023883190006017685 -0.040224090218544006 0.10000000149011612
   vertex 0.022779382765293121 -0.030126528814435005 0.10000000149011612
   vertex 0.032949734479188919 -0.032949734479188919 0.10000000149011612
  endloop
 endfacet
 facet normal 0 0 -1
  outer loop
   vertex 0.032949734479188919 0.032949734479188919 0.10000000149011612
   vertex 0.022779382765293121 0.030126528814435005 0.10000000149011612
   vertex 0.023907359689474106 0.040233485400676727 0.10000000149011612
  endloop
 endfacet
 facet normal 0 0 -1
  outer loop
   vertex -0.032949734479188919 -0.032949734479188919 0.10000000149011612
   vertex -0.022715022787451744 -0.029771538451313972 0.10000000149011612
   vertex -0.023907359689474106 -0.040233485400676727 0.10000000149011612
  endloop
 endfacet
 facet normal 0 0 -1
  outer loop
   vertex -0.032949734479188919 0.032949734479188919 0.10000000149011612
   vertex -0.030126528814435005 0.022779382765293121 0.10000000149011612
   vertex -0.040233485400676727 0.023907359689474106 0.10000000149011612
  endloop
 endfacet
 facet normal 0 0 -1
  outer loop
   vertex 0.014205099083483219 0.0065029733814299107 0.10000000149011612
   vertex 0.013230196200311184 0.014164701104164124 0.10000000149011612
   vertex 0.022349800914525986 0.0093439500778913498 0.10000000149011612
  endloop
 endfacet
 facet normal 0 0 -1
  outer loop
   vertex -0.0086857713758945465 -0.019641250371932983 0.10000000149011612
   vertex 0.0011389947030693293 -0.019025951623916626 0.10000000149011612
   vertex 0.00091432424960657954 -0.027908474206924438 0.10000000149011612
  endloop
 endfacet
 facet normal 0 0 -1
  outer loop
   vertex 0.027585791423916817 -0.0006933603435754776 0.10000000149011612
   vertex 0.018663814291357994 0.00079448142787441611 0.10000000149011612
   vertex 0.022349800914525986 0.0093439500778913498 0.10000000149011612
  endloop
 endfacet
 facet normal 0 0 -1
  outer loop
   vertex 0.022349800914525986 0.0093439500778913498 0.10000000149011612
   vertex 0.013230196200311184 0.014164701104164124 0.10000000149011612
   vertex 0.020714284852147102 0.020714284852147102 0.10000000149011612
  endloop
 endfacet
 facet normal 0 0 -1
  outer loop
   vertex 0 0.05000000074505806 0.10000000149011612
   vertex -0.0068982006050646305 0.041642703115940094 0.10000000149011612
   vertex -0.0099999997764825821 0.05000000074505806 0.10000000149011612
  endloop
 endfacet
 facet normal -0 0 -1
  outer loop
   vertex -0.05000000074505806 0.0099999997764825821 0.10000000149011612
   vertex -0.041647911071777344 0.0068578533828258514 0.10000000149011612
   vertex -0.05000000074505806 0 0.10000000149011612
  endloop
 endfacet
 facet normal 0 -0 -1
  outer loop
   vertex -0.0099999997764825821 -0.05000000074505806 0.10000000149011612
   vertex -0.0070078754797577858 -0.041675131767988205 0.10000000149011612
   vertex 0 -0.05000000074505806 0.10000000149011612
  endloop
 endfacet
 facet normal 0 0 -1
  outer loop
   vertex 0.05000000074505806 -0.0099999997764825821 0.10000000149011612
   vertex 0.041675131767988205 -0.0070078754797577858 0.10000000149011612
   vertex 0.05000000074505806 0 0.10000000149011612
  endloop
 endfacet
 facet normal -0 0 -1
  outer loop
   vertex 0.029999999329447746 0.05000000074505806 0.10000000149011612
   vertex 0.032386936247348785 0.04219026118516922 0.10000000149011612
   vertex 0.023907359689474106 0.040233485400676727 0.10000000149011612
  endloop
 endfacet
 facet normal 0 0 -1
  outer loop
   vertex 0.05000000074505806 -0.029999999329447746 0.10000000149011612
   vertex 0.042002860456705093 -0.032010171562433243 0.10000000149011612
   vertex 0.040060941129922867 -0.024029860273003578 0.10000000149011612
  endloop
 endfacet
 facet normal 0 0 -1
  outer loop
   vertex -0.029999999329447746 -0.05000000074505806 0.10000000149011612
   vertex -0.032010171562433243 -0.042002860456705093 0.10000000149011612
   vertex -0.023907359689474106 -0.040233485400676727 0.10000000149011612
  endloop
 endfacet
 facet normal 0 0 -1
  outer loop
   vertex -0.024029860273003578 0.040060941129922867 0.10000000149011612
   vertex -0.032010171562433243 0.042002860456705093 0.10000000149011612
   vertex -0.029999999329447746 0.05000000074505806 0.10000000149011612
  endloop
 endfacet
 facet normal -0 0 -1
  outer loop
   vertex 0.023883190006017685 -0.040224090218544006 0.10000000149011612
   vertex 0.032010171562433243 -0.042002860456705093 0.10000000149011612
   vertex 0.029999999329447746 -0.05000000074505806 0.10000000149011612
  endloop
 endfacet
 facet normal 0 -0 -1
  outer loop
   vertex 0.040060941129922867 0.024029860273003578 0.10000000149011612
   vertex 0.042002860456705093 0.032010171562433243 0.10000000149011612
   vertex 0.05000000074505806 0.029999999329447746 0.10000000149011612
  endloop
 endfacet
 facet normal 0 -0 -1
  outer loop
   vertex -0.05000000074505806 0.029999999329447746 0.10000000149011612
   vertex -0.042002860456705093 0.032010171562433243 0.10000000149011612
   vertex -0.040233485400676727 0.023907359689474106 0.10000000149011612
  endloop
 endfacet
 facet normal 0 0 -1
  outer loop
   vertex -0.040060941129922867 -0.024029860273003578 0.10000000149011612
   vertex -0.042002860456705093 -0.032010171562433243 0.10000000149011612
   vertex -0.05000000074505806 -0.029999999329447746 0.10000000149011612
  endloop
 endfacet
 facet normal -0 0 -1
  outer loop
   vertex -0.0025216031353920698 -0.009813760407269001 0.10000000149011612
   vertex 0.0011389947030693293 -0.019025951623916626 0.10000000149011612
   vertex -0.0086857713758945465 -0.019641250371932983 0.10000000149011612
  endloop
 endfacet
 facet normal 0 0 -1
  outer loop
   vertex 0.023907359689474106 0.040233485400676727 0.10000000149011612
   vertex 0.022779382765293121 0.030126528814435005 0.10000000149011612
   vertex 0.014071010984480381 0.03488660603761673 0.10000000149011612
  endloop
 endfacet
 facet normal -0 0 -1
  outer loop
   vertex -0.040233485400676727 0.023907359689474106 0.10000000149011612
   vertex -0.030126528814435005 0.022779382765293121 0.10000000149011612
   vertex -0.03488660603761673 0.014071010984480381 0.10000000149011612
  endloop
 endfacet
 facet normal 0 -0 -1
  outer loop
   vertex -0.023907359689474106 -0.040233485400676727 0.10000000149011612
   vertex -0.022715022787451744 -0.029771538451313972 0.10000000149011612
   vertex -0.014071010984480381 -0.03488660603761673 0.10000000149011612
  endloop
 endfacet
 facet normal 0 -0 -1
  outer loop
   vertex 0.013834146782755852 -0.034794528037309647 0.10000000149011612
   vertex 0.022779382765293121 -0.030126528814435005 0.10000000149011612
   vertex 0.023883190006017685 -0.040224090218544006 0.10000000149011612
  endloop
 endfacet
 facet normal 0 0 -1
  outer loop
   vertex -0.0025216031353920698 -0.009813760407269001 0.10000000149011612
   vertex -0.0087486561387777328 -0.00029305549105629325 0.10000000149011612
   vertex 0.00057378067867830396 -0.00092536449665203691 0.10000000149011612
  endloop
 endfacet
 facet normal 0 -0 -1
  outer loop
   vertex -0.012523344717919827 -0.0081909410655498505 0.10000000149011612
   vertex -0.0087486561387777328 -0.00029305549105629325 0.10000000149011612
   vertex -0.0025216031353920698 -0.009813760407269001 0.10000000149011612
  endloop
 endfacet
 facet normal 0 0 -1
  outer loop
   vertex 0.040060941129922867 0.024029860273003578 0.10000000149011612
   vertex 0.029961656779050827 0.023702364414930344 0.10000000149011612
   vertex 0.032949734479188919 0.032949734479188919 0.10000000149011612
  endloop
 endfacet
 facet normal 0 0 -1
  outer loop
   vertex 0.032949734479188919 -0.032949734479188919 0.10000000149011612
   vertex 0.029530616477131844 -0.022500161081552505 0.10000000149011612
   vertex 0.040060941129922867 -0.024029860273003578 0.10000000149011612
  endloop
 endfacet
 facet normal 0 0 -1
  outer loop
   vertex -0.040060941129922867 -0.024029860273003578 0.10000000149011612
   vertex -0.029961656779050827 -0.023702364414930344 0.10000000149011612
   vertex -0.032949734479188919 -0.032949734479188919 0.10000000149011612
  endloop
 endfacet
 facet normal 0 0 -1
  outer loop
   vertex -0.024029860273003578 0.040060941129922867 0.10000000149011612
   vertex -0.022681919857859612 0.029615815728902817 0.10000000149011612
   vertex -0.032949734479188919 0.032949734479188919 0.10000000149011612
  endloop
 endfacet
 facet normal 0 -0 -1
  outer loop
   vertex 0.020714284852147102 -0.020714284852147102 0.10000000149011612
   vertex 0.025416307151317596 -0.012475916184484959 0.10000000149011612
   vertex 0.029530616477131844 -0.022500161081552505 0.10000000149011612
  endloop
 endfacet
 facet normal 0 0 -1
  outer loop
   vertex 0.0084137991070747375 0.022264827042818069 0.10000000149011612
   vertex -0.0013360215816646814 0.020711310207843781 0.10000000149011612
   vertex 3.4694469519536142e-18 0.028031358495354652 0.10000000149011612
  endloop
 endfacet
 facet normal 0 0 -1
  outer loop
   vertex 0.0019099880009889603 0.014015679247677326 0.10000000149011612
   vertex -0.0013360215816646814 0.020711310207843781 0.10000000149011612
   vertex 0.0084137991070747375 0.022264827042818069 0.10000000149011612
  endloop
 endfacet
 facet normal -0 0 -1
  outer loop
   vertex 0.0040120137855410576 0.038821108639240265 0.10000000149011612
   vertex 0.0079245716333389282 0.030051892623305321 0.10000000149011612
   vertex 3.4694469519536142e-18 0.028031358495354652 0.10000000149011612
  endloop
 endfacet
 facet normal 0 0 -1
  outer loop
   vertex 0.014071010984480381 0.03488660603761673 0.10000000149011612
   vertex 0.0079245716333389282 0.030051892623305321 0.10000000149011612
   vertex 0.0040120137855410576 0.038821108639240265 0.10000000149011612
  endloop
 endfacet
 facet normal 0 -0 -1
  outer loop
   vertex -0.023045064881443977 -0.0099924355745315552 0.10000000149011612
   vertex -0.018801165744662285 -0.0013005883665755391 0.10000000149011612
   vertex -0.012523344717919827 -0.0081909410655498505 0.10000000149011612
  endloop
 endfacet
 facet normal -0 0 -1
  outer loop
   vertex -0.028086381033062935 -0.00022921561321709305 0.10000000149011612
   vertex -0.018801165744662285 -0.0013005883665755391 0.10000000149011612
   vertex -0.023045064881443977 -0.0099924355745315552 0.10000000149011612
  endloop
 endfacet
 facet normal 0 0 -1
  outer loop
   vertex 0.039999999105930328 0.05000000074505806 0.10000000149011612
   vertex 0.032386936247348785 0.04219026118516922 0.10000000149011612
   vertex 0.029999999329447746 0.05000000074505806 0.10000000149011612
  endloop
 endfacet
 facet normal 0 0 -1
  outer loop
   vertex 0.05000000074505806 0.029999999329447746 0.10000000149011612
   vertex 0.042002860456705093 0.032010171562433243 0.10000000149011612
   vertex 0.05000000074505806 0.039999999105930328 0.10000000149011612
  endloop
 endfacet
 facet normal 0 0 -1
  outer loop
   vertex 0.05000000074505806 -0.039999999105930328 0.10000000149011612
   vertex 0.042002860456705093 -0.032010171562433243 0.10000000149011612
   vertex 0.05000000074505806 -0.029999999329447746 0.10000000149011612
  endloop
 endfacet
 facet normal 0 -0 -1
  outer loop
   vertex -0.039999999105930328 -0.05000000074505806 0.10000000149011612
   vertex -0.032010171562433243 -0.042002860456705093 0.10000000149011612
   vertex -0.029999999329447746 -0.05000000074505806 0.10000000149011612
  endloop
 endfacet
 facet normal -0 0 -1
  outer loop
   vertex -0.05000000074505806 -0.029999999329447746 0.10000000149011612
   vertex -0.042002860456705093 -0.032010171562433243 0.10000000149011612
   vertex -0.05000000074505806 -0.039999999105930328 0.10000000149011612
  endloop
 endfacet
 facet normal 0 -0 -1
  outer loop
   vertex 0.029999999329447746 -0.05000000074505806 0.10000000149011612
   vertex 0.032010171562433243 -0.042002860456705093 0.10000000149011612
   vertex 0.039999999105930328 -0.05000000074505806 0.10000000149011612
  endloop
 endfacet
 facet normal -0 0 -1
  outer loop
   vertex -0.05000000074505806 0.039999999105930328 0.10000000149011612
   vertex -0.042002860456705093 0.032010171562433243 0.10000000149011612
   vertex -0.05000000074505806 0.029999999329447746 0.10000000149011612
  endloop
 endfacet
 facet normal 0 0 -1
  outer loop
   vertex -0.029999999329447746 0.05000000074505806 0.10000000149011612
   vertex -0.032010171562433243 0.042002860456705093 0.10000000149011612
   vertex -0.039999999105930328 0.05000000074505806 0.10000000149011612
  endloop
 endfacet
 facet normal 0 -0 -1
  outer loop
   vertex -0.0070078754797577858 -0.041675131767988205 0.10000000149011612
   vertex -0.0066086282022297382 -0.031568355858325958 0.10000000149011612
   vertex 0.0033539629075676203 -0.039015680551528931 0.10000000149011612
  endloop
 endfacet
 facet normal -0 0 -1
  outer loop
   vertex -0.041647911071777344 0.0068578533828258514 0.10000000149011612
   vertex -0.033569633960723877 0.0053770407103002071 0.10000000149011612
   vertex -0.038852356374263763 -0.0042540952563285828 0.10000000149011612
  endloop
 endfacet
 facet normal 0 0 -1
  outer loop
   vertex 0.0040120137855410576 0.038821108639240265 0.10000000149011612
   vertex -0.0065545989200472832 0.031948607414960861 0.10000000149011612
   vertex -0.0068982006050646305 0.041642703115940094 0.10000000149011612
  endloop
 endfacet
 facet normal 0 0 -1
  outer loop
   vertex 0.041675131767988205 -0.0070078754797577858 0.10000000149011612
   vertex 0.033715903759002686 -0.0061788400635123253 0.10000000149011612
   vertex 0.039015680551528931 0.0033539629075676203 0.10000000149011612
  endloop
 endfacet
 facet normal 0 0 -1
  outer loop
   vertex 0.040430657565593719 0.040430657565593719 0.10000000149011612
   vertex 0.032386936247348785 0.04219026118516922 0.10000000149011612
   vertex 0.039999999105930328 0.05000000074505806 0.10000000149011612
  endloop
 endfacet
 facet normal 0 0 -1
  outer loop
   vertex 0.05000000074505806 0.039999999105930328 0.10000000149011612
   vertex 0.042002860456705093 0.032010171562433243 0.10000000149011612
   vertex 0.040430657565593719 0.040430657565593719 0.10000000149011612
  endloop
 endfacet
 facet normal 0 0 -1
  outer loop
   vertex -0.04059804230928421 0.04059804230928421 0.10000000149011612
   vertex -0.042002860456705093 0.032010171562433243 0.10000000149011612
   vertex -0.05000000074505806 0.039999999105930328 0.10000000149011612
  endloop
 endfacet
 facet normal -0 0 -1
  outer loop
   vertex -0.039999999105930328 0.05000000074505806 0.10000000149011612
   vertex -0.032010171562433243 0.042002860456705093 0.10000000149011612
   vertex -0.04059804230928421 0.04059804230928421 0.10000000149011612
  endloop
 endfacet
 facet normal 0 -0 -1
  outer loop
   vertex -0.05000000074505806 -0.039999999105930328 0.10000000149011612
   vertex -0.042002860456705093 -0.032010171562433243 0.10000000149011612
   vertex -0.04059804230928421 -0.04059804230928421 0.10000000149011612
  endloop
 endfacet
 facet normal 0 -0 -1
  outer loop
   vertex 0.04059804230928421 -0.04059804230928421 0.10000000149011612
   vertex 0.042002860456705093 -0.032010171562433243 0.10000000149011612
   vertex 0.05000000074505806 -0.039999999105930328 0.10000000149011612
  endloop
 endfacet
 facet normal 0 0 -1
  outer loop
   vertex 0.039999999105930328 -0.05000000074505806 0.10000000149011612
   vertex 0.032010171562433243 -0.042002860456705093 0.10000000149011612
   vertex 0.04059804230928421 -0.04059804230928421 0.10000000149011612
  endloop
 endfacet
 facet normal -0 0 -1
  outer loop
   vertex -0.04059804230928421 -0.04059804230928421 0.10000000149011612
   vertex -0.032010171562433243 -0.042002860456705093 0.10000000149011612
   vertex -0.039999999105930328 -0.05000000074505806 0.10000000149011612
  endloop
 endfacet
 facet normal 0 -0 -1
  outer loop
   vertex -0.02437492273747921 0.010439650155603886 0.10000000149011612
   vertex -0.015169416554272175 0.014755787327885628 0.10000000149011612
   vertex -0.01430831290781498 0.0063963322900235653 0.10000000149011612
  endloop
 endfacet
 facet normal 0 0 -1
  outer loop
   vertex -0.014200093224644661 0.026303935796022415 0.10000000149011612
   vertex -0.015169416554272175 0.014755787327885628 0.10000000149011612
   vertex -0.020714284852147102 0.020714284852147102 0.10000000149011612
  endloop
 endfacet
 facet normal 0 0 -1
  outer loop
   vertex -0.0087088476866483688 0.019706578925251961 0.10000000149011612
   vertex -0.015169416554272175 0.014755787327885628 0.10000000149011612
   vertex -0.014200093224644661 0.026303935796022415 0.10000000149011612
  endloop
 endfacet
 facet normal -0 0 -1
  outer loop
   vertex -0.020714284852147102 0.020714284852147102 0.10000000149011612
   vertex -0.015169416554272175 0.014755787327885628 0.10000000149011612
   vertex -0.02437492273747921 0.010439650155603886 0.10000000149011612
  endloop
 endfacet
 facet normal 0 0 -1
  outer loop
   vertex 0.032949734479188919 -0.032949734479188919 0.10000000149011612
   vertex 0.022779382765293121 -0.030126528814435005 0.10000000149011612
   vertex 0.029530616477131844 -0.022500161081552505 0.10000000149011612
  endloop
 endfacet
 facet normal 0 0 -1
  outer loop
   vertex 0.029961656779050827 0.023702364414930344 0.10000000149011612
   vertex 0.022779382765293121 0.030126528814435005 0.10000000149011612
   vertex 0.032949734479188919 0.032949734479188919 0.10000000149011612
  endloop
 endfacet
 facet normal -0 0 -1
  outer loop
   vertex -0.029961656779050827 -0.023702364414930344 0.10000000149011612
   vertex -0.022715022787451744 -0.029771538451313972 0.10000000149011612
   vertex -0.032949734479188919 -0.032949734479188919 0.10000000149011612
  endloop
 endfacet
 facet normal 0 0 -1
  outer loop
   vertex -0.022681919857859612 0.029615815728902817 0.10000000149011612
   vertex -0.030126528814435005 0.022779382765293121 0.10000000149011612
   vertex -0.032949734479188919 0.032949734479188919 0.10000000149011612
  endloop
 endfacet
 facet normal -0 0 -1
  outer loop
   vertex -0.038852356374263763 -0.0042540952563285828 0.10000000149011612
   vertex -0.03072088211774826 -0.0077823307365179062 0.10000000149011612
   vertex -0.03488660603761673 -0.014071010984480381 0.10000000149011612
  endloop
 endfacet
 facet normal 0 0 -1
  outer loop
   vertex -0.028086381033062935 -0.00022921561321709305 0.10000000149011612
   vertex -0.03072088211774826 -0.0077823307365179062 0.10000000149011612
   vertex -0.038852356374263763 -0.0042540952563285828 0.10000000149011612
  endloop
 endfacet
 facet normal -0 0 -1
  outer loop
   vertex 0.007487182505428791 -0.012875107116997242 0.10000000149011612
   vertex 0.015290817245841026 -0.015471635386347771 0.10000000149011612
   vertex 0.010887724347412586 -0.024149589240550995 0.10000000149011612
  endloop
 endfacet
 facet normal 0 0 -1
  outer loop
   vertex -0.014071010984480381 0.03488660603761673 0.10000000149011612
   vertex -0.014200093224644661 0.026303935796022415 0.10000000149011612
   vertex -0.022681919857859612 0.029615815728902817 0.10000000149011612
  endloop
 endfacet
 facet normal 0 -0 -1
  outer loop
   vertex 0.027585791423916817 -0.0006933603435754776 0.10000000149011612
   vertex 0.031554128974676132 0.0072493837215006351 0.10000000149011612
   vertex 0.039015680551528931 0.0033539629075676203 0.10000000149011612
  endloop
 endfacet
 facet normal -0 0 -1
  outer loop
   vertex 0.00091432424960657954 -0.027908474206924438 0.10000000149011612
   vertex 0.0072475392371416092 -0.031467068940401077 0.10000000149011612
   vertex 0.0033539629075676203 -0.039015680551528931 0.10000000149011612
  endloop
 endfacet
 facet normal 0 -0 -1
  outer loop
   vertex 0.0033539629075676203 -0.039015680551528931 0.10000000149011612
   vertex 0.0072475392371416092 -0.031467068940401077 0.10000000149011612
   vertex 0.013834146782755852 -0.034794528037309647 0.10000000149011612
  endloop
 endfacet
 facet normal 0 0 -1
  outer loop
   vertex 0.039015680551528931 0.0033539629075676203 0.10000000149011612
   vertex 0.031554128974676132 0.0072493837215006351 0.10000000149011612
   vertex 0.03488660603761673 0.014071010984480381 0.10000000149011612
  endloop
 endfacet
 facet normal 0 0 -1
  outer loop
   vertex 0.023907359689474106 0.040233485400676727 0.10000000149011612
   vertex 0.014398076571524143 0.042788241058588028 0.10000000149011612
   vertex 0.019999999552965164 0.05000000074505806 0.10000000149011612
  endloop
 endfacet
 facet normal -0 0 -1
  outer loop
   vertex 0.03488660603761673 -0.014071010984480381 0.10000000149011612
   vertex 0.043324537575244904 -0.015021749772131443 0.10000000149011612
   vertex 0.040060941129922867 -0.024029860273003578 0.10000000149011612
  endloop
 endfacet
 facet normal 0 0 -1
  outer loop
   vertex 0.019999999552965164 -0.05000000074505806 0.10000000149011612
   vertex 0.014214259572327137 -0.042806860059499741 0.10000000149011612
   vertex 0.023883190006017685 -0.040224090218544006 0.10000000149011612
  endloop
 endfacet
 facet normal -0 0 -1
  outer loop
   vertex -0.023907359689474106 -0.040233485400676727 0.10000000149011612
   vertex -0.014997249469161034 -0.043359044939279556 0.10000000149011612
   vertex -0.019999999552965164 -0.05000000074505806 0.10000000149011612
  endloop
 endfacet
 facet normal 0 -0 -1
  outer loop
   vertex 0.014071010984480381 0.03488660603761673 0.10000000149011612
   vertex 0.014398076571524143 0.042788241058588028 0.10000000149011612
   vertex 0.023907359689474106 0.040233485400676727 0.10000000149011612
  endloop
 endfacet
 facet normal -0 0 -1
  outer loop
   vertex -0.019999999552965164 0.05000000074505806 0.10000000149011612
   vertex -0.014999814331531525 0.043318051844835281 0.10000000149011612
   vertex -0.024029860273003578 0.040060941129922867 0.10000000149011612
  endloop
 endfacet
 facet normal 0 0 -1
  outer loop
   vertex -0.03488660603761673 0.014071010984480381 0.10000000149011612
   vertex -0.043353602290153503 0.014967245049774647 0.10000000149011612
   vertex -0.040233485400676727 0.023907359689474106 0.10000000149011612
  endloop
 endfacet
 facet normal 0 0 -1
  outer loop
   vertex -0.040060941129922867 -0.024029860273003578 0.10000000149011612
   vertex -0.042759981006383896 -0.014470993541181087 0.10000000149011612
   vertex -0.03488660603761673 -0.014071010984480381 0.10000000149011612
  endloop
 endfacet
 facet normal 0 -0 -1
  outer loop
   vertex 0.040060941129922867 -0.024029860273003578 0.10000000149011612
   vertex 0.043324537575244904 -0.015021749772131443 0.10000000149011612
   vertex 0.05000000074505806 -0.019999999552965164 0.10000000149011612
  endloop
 endfacet
 facet normal -0 0 -1
  outer loop
   vertex 0.040060941129922867 0.024029860273003578 0.10000000149011612
   vertex 0.04279264435172081 0.014290967024862766 0.10000000149011612
   vertex 0.03488660603761673 0.014071010984480381 0.10000000149011612
  endloop
 endfacet
 facet normal 0 -0 -1
  outer loop
   vertex -0.024029860273003578 0.040060941129922867 0.10000000149011612
   vertex -0.014999814331531525 0.043318051844835281 0.10000000149011612
   vertex -0.014071010984480381 0.03488660603761673 0.10000000149011612
  endloop
 endfacet
 facet normal 0 0 -1
  outer loop
   vertex 0.05000000074505806 0.019999999552965164 0.10000000149011612
   vertex 0.04279264435172081 0.014290967024862766 0.10000000149011612
   vertex 0.040060941129922867 0.024029860273003578 0.10000000149011612
  endloop
 endfacet
 facet normal 0 -0 -1
  outer loop
   vertex -0.05000000074505806 -0.019999999552965164 0.10000000149011612
   vertex -0.042759981006383896 -0.014470993541181087 0.10000000149011612
   vertex -0.040060941129922867 -0.024029860273003578 0.10000000149011612
  endloop
 endfacet
 facet normal 0 0 -1
  outer loop
   vertex 0.023883190006017685 -0.040224090218544006 0.10000000149011612
   vertex 0.014214259572327137 -0.042806860059499741 0.10000000149011612
   vertex 0.013834146782755852 -0.034794528037309647 0.10000000149011612
  endloop
 endfacet
 facet normal 0 0 -1
  outer loop
   vertex -0.040233485400676727 0.023907359689474106 0.10000000149011612
   vertex -0.043353602290153503 0.014967245049774647 0.10000000149011612
   vertex -0.05000000074505806 0.019999999552965164 0.10000000149011612
  endloop
 endfacet
 facet normal 0 0 -1
  outer loop
   vertex -0.014071010984480381 -0.03488660603761673 0.10000000149011612
   vertex -0.014997249469161034 -0.043359044939279556 0.10000000149011612
   vertex -0.023907359689474106 -0.040233485400676727 0.10000000149011612
  endloop
 endfacet
 facet normal 0 0 -1
  outer loop
   vertex 0.020714284852147102 -0.020714284852147102 0.10000000149011612
   vertex 0.015290817245841026 -0.015471635386347771 0.10000000149011612
   vertex 0.025416307151317596 -0.012475916184484959 0.10000000149011612
  endloop
 endfacet
 facet normal 0 0 -1
  outer loop
   vertex 0.025416307151317596 -0.012475916184484959 0.10000000149011612
   vertex 0.015290817245841026 -0.015471635386347771 0.10000000149011612
   vertex 0.017653604969382286 -0.0076035363599658012 0.10000000149011612
  endloop
 endfacet
 facet normal 0 -0 -1
  outer loop
   vertex 0.010887724347412586 -0.024149589240550995 0.10000000149011612
   vertex 0.015290817245841026 -0.015471635386347771 0.10000000149011612
   vertex 0.020714284852147102 -0.020714284852147102 0.10000000149011612
  endloop
 endfacet
 facet normal -0 0 -1
  outer loop
   vertex -0.023045064881443977 -0.0099924355745315552 0.10000000149011612
   vertex -0.015535449609160423 -0.016198841854929924 0.10000000149011612
   vertex -0.021244976669549942 -0.020574050024151802 0.10000000149011612
  endloop
 endfacet
 facet normal 0 0 -1
  outer loop
   vertex -0.012523344717919827 -0.0081909410655498505 0.10000000149011612
   vertex -0.015535449609160423 -0.016198841854929924 0.10000000149011612
   vertex -0.023045064881443977 -0.0099924355745315552 0.10000000149011612
  endloop
 endfacet
 facet normal 0 0 -1
  outer loop
   vertex 0.020714284852147102 0.020714284852147102 0.10000000149011612
   vertex 0.013230196200311184 0.014164701104164124 0.10000000149011612
   vertex 0.0084137991070747375 0.022264827042818069 0.10000000149011612
  endloop
 endfacet
 facet normal 0 0 -1
  outer loop
   vertex 0.032949734479188919 -0.032949734479188919 0.10000000149011612
   vertex 0.032010171562433243 -0.042002860456705093 0.10000000149011612
   vertex 0.023883190006017685 -0.040224090218544006 0.10000000149011612
  endloop
 endfacet
 facet normal -0 0 -1
  outer loop
   vertex 0.032949734479188919 0.032949734479188919 0.10000000149011612
   vertex 0.042002860456705093 0.032010171562433243 0.10000000149011612
   vertex 0.040060941129922867 0.024029860273003578 0.10000000149011612
  endloop
 endfacet
 facet normal -0 0 -1
  outer loop
   vertex 0.040060941129922867 -0.024029860273003578 0.10000000149011612
   vertex 0.042002860456705093 -0.032010171562433243 0.10000000149011612
   vertex 0.032949734479188919 -0.032949734479188919 0.10000000149011612
  endloop
 endfacet
 facet normal 0 -0 -1
  outer loop
   vertex 0.023907359689474106 0.040233485400676727 0.10000000149011612
   vertex 0.032386936247348785 0.04219026118516922 0.10000000149011612
   vertex 0.032949734479188919 0.032949734479188919 0.10000000149011612
  endloop
 endfacet
 facet normal 0 -0 -1
  outer loop
   vertex -0.032949734479188919 0.032949734479188919 0.10000000149011612
   vertex -0.032010171562433243 0.042002860456705093 0.10000000149011612
   vertex -0.024029860273003578 0.040060941129922867 0.10000000149011612
  endloop
 endfacet
 facet normal 0 0 -1
  outer loop
   vertex -0.023907359689474106 -0.040233485400676727 0.10000000149011612
   vertex -0.032010171562433243 -0.042002860456705093 0.10000000149011612
   vertex -0.032949734479188919 -0.032949734479188919 0.10000000149011612
  endloop
 endfacet
 facet normal 0 0 -1
  outer loop
   vertex -0.040233485400676727 0.023907359689474106 0.10000000149011612
   vertex -0.042002860456705093 0.032010171562433243 0.10000000149011612
   vertex -0.032949734479188919 0.032949734479188919 0.10000000149011612
  endloop
 endfacet
 facet normal 0 0 -1
  outer loop
   vertex -0.032949734479188919 -0.032949734479188919 0.10000000149011612
   vertex -0.042002860456705093 -0.032010171562433243 0.10000000149011612
   vertex -0.040060941129922867 -0.024029860273003578 0.10000000149011612
  endloop
 endfacet
 facet normal 0 -0 -1
  outer loop
   vertex 0.0084137991070747375 0.022264827042818069 0.10000000149011612
   vertex 0.015264653600752354 0.027369482442736626 0.10000000149011612
   vertex 0.020714284852147102 0.020714284852147102 0.10000000149011612
  endloop
 endfacet
 facet normal 0 -0 -1
  outer loop
   vertex 3.4694469519536142e-18 0.028031358495354652 0.10000000149011612
   vertex 0.0079245716333389282 0.030051892623305321 0.10000000149011612
   vertex 0.0084137991070747375 0.022264827042818069 0.10000000149011612
  endloop
 endfacet
 facet normal 0 0 -1
  outer loop
   vertex -0.028086381033062935 -0.00022921561321709305 0.10000000149011612
   vertex -0.033569633960723877 0.0053770407103002071 0.10000000149011612
   vertex -0.02437492273747921 0.010439650155603886 0.10000000149011612
  endloop
 endfacet
 facet normal 0 0 -1
  outer loop
   vertex -0.02437492273747921 0.010439650155603886 0.10000000149011612
   vertex -0.033569633960723877 0.0053770407103002071 0.10000000149011612
   vertex -0.03488660603761673 0.014071010984480381 0.10000000149011612
  endloop
 endfacet
 facet normal 0 0 -1
  outer loop
   vertex 0.029530616477131844 -0.022500161081552505 0.10000000149011612
   vertex 0.022779382765293121 -0.030126528814435005 0.10000000149011612
   vertex 0.020714284852147102 -0.020714284852147102 0.10000000149011612
  endloop
 endfacet
 facet normal 0 0 -1
  outer loop
   vertex -0.020714284852147102 0.020714284852147102 0.10000000149011612
   vertex -0.030126528814435005 0.022779382765293121 0.10000000149011612
   vertex -0.022681919857859612 0.029615815728902817 0.10000000149011612
  endloop
 endfacet
 facet normal 0 0 -1
  outer loop
   vertex -0.021244976669549942 -0.020574050024151802 0.10000000149011612
   vertex -0.022715022787451744 -0.029771538451313972 0.10000000149011612
   vertex -0.029961656779050827 -0.023702364414930344 0.10000000149011612
  endloop
 endfacet
 facet normal 0 -0 -1
  outer loop
   vertex 0.020714284852147102 0.020714284852147102 0.10000000149011612
   vertex 0.022779382765293121 0.030126528814435005 0.10000000149011612
   vertex 0.029961656779050827 0.023702364414930344 0.10000000149011612
  endloop
 endfacet
 facet normal 0 0 -1
  outer loop
   vertex 0.0097829625010490417 -0.0024571623653173447 0.10000000149011612
   vertex 0.018663814291357994 0.00079448142787441611 0.10000000149011612
   vertex 0.017653604969382286 -0.0076035363599658012 0.10000000149011612
  endloop
 endfacet
 facet normal -0 0 -1
  outer loop
   vertex 0.014205099083483219 0.0065029733814299107 0.10000000149011612
   vertex 0.018663814291357994 0.00079448142787441611 0.10000000149011612
   vertex 0.0097829625010490417 -0.0024571623653173447 0.10000000149011612
  endloop
 endfacet
 facet normal 0 0 -1
  outer loop
   vertex 0.007487182505428791 -0.012875107116997242 0.10000000149011612
   vertex 0.0011389947030693293 -0.019025951623916626 0.10000000149011612
   vertex -0.0025216031353920698 -0.009813760407269001 0.10000000149011612
  endloop
 endfacet
 facet normal -0 0 -1
  outer loop
   vertex -0.022681919857859612 0.029615815728902817 0.10000000149011612
   vertex -0.014200093224644661 0.026303935796022415 0.10000000149011612
   vertex -0.020714284852147102 0.020714284852147102 0.10000000149011612
  endloop
 endfacet
 facet normal 0 0 -1
  outer loop
   vertex -0.021244976669549942 -0.020574050024151802 0.10000000149011612
   vertex -0.027599243447184563 -0.016419501975178719 0.10000000149011612
   vertex -0.023045064881443977 -0.0099924355745315552 0.10000000149011612
  endloop
 endfacet
 facet normal 0 0 -1
  outer loop
   vertex -0.023045064881443977 -0.0099924355745315552 0.10000000149011612
   vertex -0.03072088211774826 -0.0077823307365179062 0.10000000149011612
   vertex -0.028086381033062935 -0.00022921561321709305 0.10000000149011612
  endloop
 endfacet
 facet normal -0 0 -1
  outer loop
   vertex 0.022349800914525986 0.0093439500778913498 0.10000000149011612
   vertex 0.031554128974676132 0.0072493837215006351 0.10000000149011612
   vertex 0.027585791423916817 -0.0006933603435754776 0.10000000149011612
  endloop
 endfacet
 facet normal 0 0 -1
  outer loop
   vertex 0.013834146782755852 -0.034794528037309647 0.10000000149011612
   vertex 0.0072475392371416092 -0.031467068940401077 0.10000000149011612
   vertex 0.010887724347412586 -0.024149589240550995 0.10000000149011612
  endloop
 endfacet
 facet normal 0 0 -1
  outer loop
   vertex 0.010887724347412586 -0.024149589240550995 0.10000000149011612
   vertex 0.0072475392371416092 -0.031467068940401077 0.10000000149011612
   vertex 0.00091432424960657954 -0.027908474206924438 0.10000000149011612
  endloop
 endfacet
 facet normal -0 0 -1
  outer loop
   vertex -0.0055560427717864513 0.0085766231641173363 0.10000000149011612
   vertex 0.0055591645650565624 0.006380405742675066 0.10000000149011612
   vertex 0.00057378067867830396 -0.00092536449665203691 0.10000000149011612
  endloop
 endfacet
 facet normal 0 0 -1
  outer loop
   vertex 0.0019099880009889603 0.014015679247677326 0.10000000149011612
   vertex 0.0055591645650565624 0.006380405742675066 0.10000000149011612
   vertex -0.0055560427717864513 0.0085766231641173363 0.10000000149011612
  endloop
 endfacet
 facet normal 0 -0 -1
  outer loop
   vertex 0.00057378067867830396 -0.00092536449665203691 0.10000000149011612
   vertex 0.0055591645650565624 0.006380405742675066 0.10000000149011612
   vertex 0.0097829625010490417 -0.0024571623653173447 0.10000000149011612
  endloop
 endfacet
 facet normal 0 0 -1
  outer loop
   vertex 0.0097829625010490417 -0.0024571623653173447 0.10000000149011612
   vertex 0.0055591645650565624 0.006380405742675066 0.10000000149011612
   vertex 0.014205099083483219 0.0065029733814299107 0.10000000149011612
  endloop
 endfacet
 facet normal -0 0 -1
  outer loop
   vertex 0.020714284852147102 0.020714284852147102 0.10000000149011612
   vertex 0.028134884312748909 0.016693400219082832 0.10000000149011612
   vertex 0.022349800914525986 0.0093439500778913498 0.10000000149011612
  endloop
 endfacet
 facet normal 0 0 -1
  outer loop
   vertex -0.014155397191643715 -0.026282984763383865 0.10000000149011612
   vertex -0.015535449609160423 -0.016198841854929924 0.10000000149011612
   vertex -0.0086857713758945465 -0.019641250371932983 0.10000000149011612
  endloop
 endfacet
 facet normal 0 -0 -1
  outer loop
   vertex -0.021244976669549942 -0.020574050024151802 0.10000000149011612
   vertex -0.015535449609160423 -0.016198841854929924 0.10000000149011612
   vertex -0.014155397191643715 -0.026282984763383865 0.10000000149011612
  endloop
 endfacet
 facet normal 0 0 -1
  outer loop
   vertex -0.018801165744662285 -0.0013005883665755391 0.10000000149011612
   vertex -0.0087486561387777328 -0.00029305549105629325 0.10000000149011612
   vertex -0.012523344717919827 -0.0081909410655498505 0.10000000149011612
  endloop
 endfacet
 facet normal -0 0 -1
  outer loop
   vertex -0.01430831290781498 0.0063963322900235653 0.10000000149011612
   vertex -0.0087486561387777328 -0.00029305549105629325 0.10000000149011612
   vertex -0.018801165744662285 -0.0013005883665755391 0.10000000149011612
  endloop
 endfacet
 facet normal 0 0 -1
  outer loop
   vertex 0.03488660603761673 0.014071010984480381 0.10000000149011612
   vertex 0.028134884312748909 0.016693400219082832 0.10000000149011612
   vertex 0.029961656779050827 0.023702364414930344 0.10000000149011612
  endloop
 endfacet
 facet normal 0 -0 -1
  outer loop
   vertex -0.022715022787451744 -0.029771538451313972 0.10000000149011612
   vertex -0.014155397191643715 -0.026282984763383865 0.10000000149011612
   vertex -0.014071010984480381 -0.03488660603761673 0.10000000149011612
  endloop
 endfacet
 facet normal -0 0 -1
  outer loop
   vertex -0.03488660603761673 -0.014071010984480381 0.10000000149011612
   vertex -0.027599243447184563 -0.016419501975178719 0.10000000149011612
   vertex -0.029961656779050827 -0.023702364414930344 0.10000000149011612
  endloop
 endfacet
 facet normal -0 0 -1
  outer loop
   vertex -0.021244976669549942 -0.020574050024151802 0.10000000149011612
   vertex -0.014155397191643715 -0.026282984763383865 0.10000000149011612
   vertex -0.022715022787451744 -0.029771538451313972 0.10000000149011612
  endloop
 endfacet
 facet normal 0 -0 -1
  outer loop
   vertex 0.022349800914525986 0.0093439500778913498 0.10000000149011612
   vertex 0.028134884312748909 0.016693400219082832 0.10000000149011612
   vertex 0.031554128974676132 0.0072493837215006351 0.10000000149011612
  endloop
 endfacet
 facet normal 0 0 -1
  outer loop
   vertex -0.04059804230928421 0.04059804230928421 0.10000000149011612
   vertex -0.032010171562433243 0.042002860456705093 0.10000000149011612
   vertex -0.032949734479188919 0.032949734479188919 0.10000000149011612
  endloop
 endfacet
 facet normal 0 0 -1
  outer loop
   vertex 0.04059804230928421 -0.04059804230928421 0.10000000149011612
   vertex 0.032010171562433243 -0.042002860456705093 0.10000000149011612
   vertex 0.032949734479188919 -0.032949734479188919 0.10000000149011612
  endloop
 endfacet
 facet normal 0 0 -1
  outer loop
   vertex -0.032949734479188919 0.032949734479188919 0.10000000149011612
   vertex -0.042002860456705093 0.032010171562433243 0.10000000149011612
   vertex -0.04059804230928421 0.04059804230928421 0.10000000149011612
  endloop
 endfacet
 facet normal 0 0 -1
  outer loop
   vertex -0.032949734479188919 -0.032949734479188919 0.10000000149011612
   vertex -0.032010171562433243 -0.042002860456705093 0.10000000149011612
   vertex -0.04059804230928421 -0.04059804230928421 0.10000000149011612
  endloop
 endfacet
 facet normal 0 0 -1
  outer loop
   vertex 0.040430657565593719 0.040430657565593719 0.10000000149011612
   vertex 0.042002860456705093 0.032010171562433243 0.10000000149011612
   vertex 0.032949734479188919 0.032949734479188919 0.10000000149011612
  endloop
 endfacet
 facet normal 0 0 -1
  outer loop
   vertex 0.032949734479188919 0.032949734479188919 0.10000000149011612
   vertex 0.032386936247348785 0.04219026118516922 0.10000000149011612
   vertex 0.040430657565593719 0.040430657565593719 0.10000000149011612
  endloop
 endfacet
 facet normal 0 0 -1
  outer loop
   vertex 0.032949734479188919 -0.032949734479188919 0.10000000149011612
   vertex 0.042002860456705093 -0.032010171562433243 0.10000000149011612
   vertex 0.04059804230928421 -0.04059804230928421 0.10000000149011612
  endloop
 endfacet
 facet normal 0 0 -1
  outer loop
   vertex -0.04059804230928421 -0.04059804230928421 0.10000000149011612
   vertex -0.042002860456705093 -0.032010171562433243 0.10000000149011612
   vertex -0.032949734479188919 -0.032949734479188919 0.10000000149011612
  endloop
 endfacet
 facet normal 0 0 -1
  outer loop
   vertex 0.031554128974676132 0.0072493837215006351 0.10000000149011612
   vertex 0.028134884312748909 0.016693400219082832 0.10000000149011612
   vertex 0.03488660603761673 0.014071010984480381 0.10000000149011612
  endloop
 endfacet
 facet normal -0 0 -1
  outer loop
   vertex -0.014071010984480381 0.03488660603761673 0.10000000149011612
   vertex -0.0065545989200472832 0.031948607414960861 0.10000000149011612
   vertex -0.014200093224644661 0.026303935796022415 0.10000000149011612
  endloop
 endfacet
 facet normal 0 0 -1
  outer loop
   vertex 0.041675131767988205 -0.0070078754797577858 0.10000000149011612
   vertex 0.043324537575244904 -0.015021749772131443 0.10000000149011612
   vertex 0.03488660603761673 -0.014071010984480381 0.10000000149011612
  endloop
 endfacet
 facet normal 0 0 -1
  outer loop
   vertex -0.041647911071777344 0.0068578533828258514 0.10000000149011612
   vertex -0.043353602290153503 0.014967245049774647 0.10000000149011612
   vertex -0.03488660603761673 0.014071010984480381 0.10000000149011612
  endloop
 endfacet
 facet normal 0 0 -1
  outer loop
   vertex -0.0099999997764825821 -0.05000000074505806 0.10000000149011612
   vertex -0.014997249469161034 -0.043359044939279556 0.10000000149011612
   vertex -0.0070078754797577858 -0.041675131767988205 0.10000000149011612
  endloop
 endfacet
 facet normal 0 0 -1
  outer loop
   vertex -0.0070078754797577858 -0.041675131767988205 0.10000000149011612
   vertex -0.014997249469161034 -0.043359044939279556 0.10000000149011612
   vertex -0.014071010984480381 -0.03488660603761673 0.10000000149011612
  endloop
 endfacet
 facet normal 0 0 -1
  outer loop
   vertex -0.014071010984480381 0.03488660603761673 0.10000000149011612
   vertex -0.014999814331531525 0.043318051844835281 0.10000000149011612
   vertex -0.0068982006050646305 0.041642703115940094 0.10000000149011612
  endloop
 endfacet
 facet normal 0 0 -1
  outer loop
   vertex -0.0068982006050646305 0.041642703115940094 0.10000000149011612
   vertex -0.014999814331531525 0.043318051844835281 0.10000000149011612
   vertex -0.0099999997764825821 0.05000000074505806 0.10000000149011612
  endloop
 endfacet
 facet normal 0 0 -1
  outer loop
   vertex 0.05000000074505806 -0.0099999997764825821 0.10000000149011612
   vertex 0.043324537575244904 -0.015021749772131443 0.10000000149011612
   vertex 0.041675131767988205 -0.0070078754797577858 0.10000000149011612
  endloop
 endfacet
 facet normal 0 -0 -1
  outer loop
   vertex -0.05000000074505806 0.0099999997764825821 0.10000000149011612
   vertex -0.043353602290153503 0.014967245049774647 0.10000000149011612
   vertex -0.041647911071777344 0.0068578533828258514 0.10000000149011612
  endloop
 endfacet
 facet normal -0 0 -1
  outer loop
   vertex -0.014155397191643715 -0.026282984763383865 0.10000000149011612
   vertex -0.0066086282022297382 -0.031568355858325958 0.10000000149011612
   vertex -0.014071010984480381 -0.03488660603761673 0.10000000149011612
  endloop
 endfacet
 facet normal 0 -0 -1
  outer loop
   vertex 0.025416307151317596 -0.012475916184484959 0.10000000149011612
   vertex 0.033715903759002686 -0.0061788400635123253 0.10000000149011612
   vertex 0.03488660603761673 -0.014071010984480381 0.10000000149011612
  endloop
 endfacet
 facet normal 0 -0 -1
  outer loop
   vertex 0.0099999997764825821 -0.05000000074505806 0.10000000149011612
   vertex 0.014214259572327137 -0.042806860059499741 0.10000000149011612
   vertex 0.019999999552965164 -0.05000000074505806 0.10000000149011612
  endloop
 endfacet
 facet normal 0 -0 -1
  outer loop
   vertex -0.019999999552965164 -0.05000000074505806 0.10000000149011612
   vertex -0.014997249469161034 -0.043359044939279556 0.10000000149011612
   vertex -0.0099999997764825821 -0.05000000074505806 0.10000000149011612
  endloop
 endfacet
 facet normal 0 0 -1
  outer loop
   vertex 0.019999999552965164 0.05000000074505806 0.10000000149011612
   vertex 0.014398076571524143 0.042788241058588028 0.10000000149011612
   vertex 0.0099999997764825821 0.05000000074505806 0.10000000149011612
  endloop
 endfacet
 facet normal 0 0 -1
  outer loop
   vertex 0.05000000074505806 0.0099999997764825821 0.10000000149011612
   vertex 0.04279264435172081 0.014290967024862766 0.10000000149011612
   vertex 0.05000000074505806 0.019999999552965164 0.10000000149011612
  endloop
 endfacet
 facet normal 0 0 -1
  outer loop
   vertex 0.05000000074505806 -0.019999999552965164 0.10000000149011612
   vertex 0.043324537575244904 -0.015021749772131443 0.10000000149011612
   vertex 0.05000000074505806 -0.0099999997764825821 0.10000000149011612
  endloop
 endfacet
 facet normal -0 0 -1
  outer loop
   vertex -0.05000000074505806 -0.0099999997764825821 0.10000000149011612
   vertex -0.042759981006383896 -0.014470993541181087 0.10000000149011612
   vertex -0.05000000074505806 -0.019999999552965164 0.10000000149011612
  endloop
 endfacet
 facet normal 0 0 -1
  outer loop
   vertex -0.0099999997764825821 0.05000000074505806 0.10000000149011612
   vertex -0.014999814331531525 0.043318051844835281 0.10000000149011612
   vertex -0.019999999552965164 0.05000000074505806 0.10000000149011612
  endloop
 endfacet
 facet normal -0 0 -1
  outer loop
   vertex -0.05000000074505806 0.019999999552965164 0.10000000149011612
   vertex -0.043353602290153503 0.014967245049774647 0.10000000149011612
   vertex -0.05000000074505806 0.0099999997764825821 0.10000000149011612
  endloop
 endfacet
 facet normal 0 0 -1
  outer loop
   vertex -0.0055560427717864513 0.0085766231641173363 0.10000000149011612
   vertex -0.0087486561387777328 -0.00029305549105629325 0.10000000149011612
   vertex -0.01430831290781498 0.0063963322900235653 0.10000000149011612
  endloop
 endfacet
 facet normal 0 0 -1
  outer loop
   vertex 0.00057378067867830396 -0.00092536449665203691 0.10000000149011612
   vertex -0.0087486561387777328 -0.00029305549105629325 0.10000000149011612
   vertex -0.0055560427717864513 0.0085766231641173363 0.10000000149011612
  endloop
 endfacet
 facet normal -0 0 -1
  outer loop
   vertex 0.00057378067867830396 -0.00092536449665203691 0.10000000149011612
   vertex 0.0038305805064737797 -0.0065178484655916691 0.10000000149011612
   vertex -0.0025216031353920698 -0.009813760407269001 0.10000000149011612
  endloop
 endfacet
 facet normal 0 0 -1
  outer loop
   vertex 0.0097829625010490417 -0.0024571623653173447 0.10000000149011612
   vertex 0.0038305805064737797 -0.0065178484655916691 0.10000000149011612
   vertex 0.00057378067867830396 -0.00092536449665203691 0.10000000149011612
  endloop
 endfacet
 facet normal 0 -0 -1
  outer loop
   vertex -0.0025216031353920698 -0.009813760407269001 0.10000000149011612
   vertex 0.0038305805064737797 -0.0065178484655916691 0.10000000149011612
   vertex 0.007487182505428791 -0.012875107116997242 0.10000000149011612
  endloop
 endfacet
 facet normal 0 0 -1
  outer loop
   vertex 0.03488660603761673 -0.014071010984480381 0.10000000149011612
   vertex 0.033715903759002686 -0.0061788400635123253 0.10000000149011612
   vertex 0.041675131767988205 -0.0070078754797577858 0.10000000149011612
  endloop
 endfacet
 facet normal 0 0 -1
  outer loop
   vertex -0.014071010984480381 -0.03488660603761673 0.10000000149011612
   vertex -0.0066086282022297382 -0.031568355858325958 0.10000000149011612
   vertex -0.0070078754797577858 -0.041675131767988205 0.10000000149011612
  endloop
 endfacet
 facet normal 0 0 -1
  outer loop
   vertex -0.03488660603761673 0.014071010984480381 0.10000000149011612
   vertex -0.033569633960723877 0.0053770407103002071 0.10000000149011612
   vertex -0.041647911071777344 0.0068578533828258514 0.10000000149011612
  endloop
 endfacet
 facet normal 0 0 -1
  outer loop
   vertex -0.0068982006050646305 0.041642703115940094 0.10000000149011612
   vertex -0.0065545989200472832 0.031948607414960861 0.10000000149011612
   vertex -0.014071010984480381 0.03488660603761673 0.10000000149011612
  endloop
 endfacet
 facet normal 0 0 -1
  outer loop
   vertex 0.022779382765293121 0.030126528814435005 0.10000000149011612
   vertex 0.015264653600752354 0.027369482442736626 0.10000000149011612
   vertex 0.014071010984480381 0.03488660603761673 0.10000000149011612
  endloop
 endfacet
 facet normal 0 0 -1
  outer loop
   vertex 0.020714284852147102 0.020714284852147102 0.10000000149011612
   vertex 0.015264653600752354 0.027369482442736626 0.10000000149011612
   vertex 0.022779382765293121 0.030126528814435005 0.10000000149011612
  endloop
 endfacet
 facet normal 0 -0 -1
  outer loop
   vertex -0.029961656779050827 -0.023702364414930344 0.10000000149011612
   vertex -0.027599243447184563 -0.016419501975178719 0.10000000149011612
   vertex -0.021244976669549942 -0.020574050024151802 0.10000000149011612
  endloop
 endfacet
 facet normal 0 0 -1
  outer loop
   vertex 0.029961656779050827 0.023702364414930344 0.10000000149011612
   vertex 0.028134884312748909 0.016693400219082832 0.10000000149011612
   vertex 0.020714284852147102 0.020714284852147102 0.10000000149011612
  endloop
 endfacet
 facet normal 0 0 -1
  outer loop
   vertex -0.03072088211774826 -0.0077823307365179062 0.10000000149011612
   vertex -0.027599243447184563 -0.016419501975178719 0.10000000149011612
   vertex -0.03488660603761673 -0.014071010984480381 0.10000000149011612
  endloop
 endfacet
 facet normal 0 0 -1
  outer loop
   vertex -0.023045064881443977 -0.0099924355745315552 0.10000000149011612
   vertex -0.027599243447184563 -0.016419501975178719 0.10000000149011612
   vertex -0.03072088211774826 -0.0077823307365179062 0.10000000149011612
  endloop
 endfacet
 facet normal -0 0 -1
  outer loop
   vertex 0.0079245716333389282 0.030051892623305321 0.10000000149011612
   vertex 0.015264653600752354 0.027369482442736626 0.10000000149011612
   vertex 0.0084137991070747375 0.022264827042818069 0.10000000149011612
  endloop
 endfacet
 facet normal 0 0 -1
  outer loop
   vertex 0.014071010984480381 0.03488660603761673 0.10000000149011612
   vertex 0.015264653600752354 0.027369482442736626 0.10000000149011612
   vertex 0.0079245716333389282 0.030051892623305321 0.10000000149011612
  endloop
 endfacet
endsolid
